<svg version="1.0" width="90.784" height="90.779" color-interpolation-filters="sRGB" xmlns:xlink="http://www.w3.org/1999/xlink" xmlns="http://www.w3.org/2000/svg"><path style="fill:url(#a);stroke-width:1.00429;fill-opacity:1" d="M47.385.006c-2.28.044-4.582.35-6.883.955C28.017 3.67 17.897 13.59 14.283 25.76c-.58 1.788-1.047 3.616-1.338 5.474-2.252 12.679 3.665 28.202 16.967 31.84 7.49 2.01 16.082-.382 21.117-6.37-11.426 4.232-23.816-5.859-25.39-17.218-2.585-12.069 6.073-24.004 17.437-27.548 14.745-5.414 31.469.812 41.692 12.083 3.387 3.684-3.674-5.928-5.456-7.625C71.41 7.176 59.7-.232 47.386.006zM24.83 5.838c-.452-.018-7.055 4.914-8.434 6.361C5.47 21.566-2.915 36.28.961 51.01 3.672 63.5 13.596 73.62 25.768 77.24c1.788.58 3.617 1.046 5.476 1.337 12.679 2.253 28.198-3.662 31.836-16.965 2.02-7.491-.388-16.082-6.377-21.117C60.937 51.92 50.85 64.31 39.49 65.88c-12.07 2.578-24.008-6.074-27.553-17.442-5.413-14.744.813-31.47 12.084-41.693.691-.635.913-.902.81-.906zm28.363 6.78c-5.961.144-11.83 1.87-16.882 5.501-10.522 7.026-11.883 23.798-2.315 32.227-3.791-11.582 6.761-23.572 18.172-24.713 12.157-2.12 23.755 6.985 26.87 18.472 4.851 14.942-2.01 31.418-13.66 41.21-3.808 3.245 6.06-3.455 7.823-5.172C84.473 71.19 93.404 56.8 90.082 41.933c-.755-3.746-2.13-7.348-3.902-10.728-6.305-11.57-19.87-18.907-32.987-18.588zm3.594 14.888c-5.808-.117-11.67 2.114-15.621 6.48 11.582-3.79 23.574 6.761 24.715 18.172 2.12 12.158-6.987 23.755-18.475 26.87-14.939 4.852-31.41-2.01-41.197-13.66-3.248-3.81 3.447 6.061 5.164 7.823 8.95 11.274 23.339 20.205 38.205 16.887 12.579-2.237 23.069-11.76 27.143-23.785.648-1.765 1.184-3.575 1.545-5.422 2.739-12.587-2.606-28.32-15.76-32.457a20.94 20.94 0 0 0-5.719-.908z"/><defs><linearGradient id="b"><stop style="stop-color:#4e148d;stop-opacity:1" offset="0"/><stop style="stop-color:#c30db3;stop-opacity:1" offset="1"/></linearGradient><linearGradient xlink:href="#b" id="a" x1="42.696" y1="40.368" x2="95.1" y2="73.231" gradientUnits="userSpaceOnUse"/></defs></svg>
