<?xml version="1.0" standalone="no"?>
<!DOCTYPE svg PUBLIC "-//W3C//DTD SVG 20010904//EN"
 "http://www.w3.org/TR/2001/REC-SVG-20010904/DTD/svg10.dtd">
<svg version="1.0" xmlns="http://www.w3.org/2000/svg"
 width="2048.000000pt" height="2048.000000pt" viewBox="0 0 2048.000000 2048.000000"
 preserveAspectRatio="xMidYMid meet">
<metadata>
Created by potrace 1.14, written by Peter Selinger 2001-2017
</metadata>
<g transform="translate(0.000000,2048.000000) scale(0.100000,-0.100000)"
fill="#000000" stroke="none">
<path d="M10478 18705 c-2 -2 -50 -6 -108 -10 -58 -4 -125 -9 -150 -10 -25 -2
-99 -11 -165 -20 -66 -9 -136 -18 -155 -21 -19 -2 -46 -6 -60 -9 -40 -8 -144
-28 -160 -30 -8 -1 -22 -5 -30 -8 -8 -3 -31 -8 -50 -11 -42 -6 -62 -10 -115
-24 -22 -6 -51 -13 -65 -16 -26 -6 -179 -42 -215 -52 -11 -3 -29 -7 -40 -9
-136 -25 -675 -202 -815 -267 -25 -11 -49 -21 -55 -22 -5 -1 -26 -9 -45 -19
-19 -9 -42 -17 -50 -19 -8 -2 -17 -5 -20 -8 -3 -3 -39 -21 -80 -39 -113 -51
-291 -139 -306 -152 -8 -6 -14 -9 -14 -5 0 3 -18 -5 -40 -19 -22 -14 -42 -25
-44 -25 -9 0 -301 -171 -317 -186 -8 -8 -19 -14 -23 -14 -6 0 -75 -43 -101
-63 -5 -4 -50 -34 -100 -67 -49 -33 -99 -66 -110 -74 -49 -35 -270 -201 -275
-206 -3 -3 -39 -32 -80 -65 -41 -32 -77 -61 -80 -64 -3 -4 -36 -33 -75 -66
-38 -33 -83 -71 -99 -85 -112 -97 -421 -406 -536 -537 -24 -26 -139 -161 -167
-193 -240 -284 -533 -715 -727 -1067 -37 -67 -66 -125 -66 -129 1 -4 -2 -10
-7 -13 -11 -8 -113 -214 -113 -229 0 -7 -3 -12 -7 -12 -5 0 -17 -21 -27 -48
-10 -26 -32 -73 -47 -105 -16 -31 -29 -61 -30 -65 -3 -14 -12 -38 -31 -79 -25
-58 -41 -96 -43 -108 -3 -9 -32 -85 -50 -130 -5 -11 -9 -22 -10 -25 -1 -3 -5
-12 -8 -20 -3 -8 -16 -46 -28 -85 -12 -38 -25 -74 -29 -80 -9 -11 -25 -76 -22
-87 1 -5 -3 -8 -10 -8 -6 0 -9 -3 -6 -6 4 -3 -6 -42 -21 -87 -16 -45 -29 -86
-30 -92 0 -5 -8 -31 -16 -56 -9 -25 -18 -57 -21 -70 -6 -30 -9 -40 -17 -59
-14 -35 -35 -120 -30 -120 3 0 0 -7 -7 -15 -7 -8 -10 -15 -6 -15 3 0 1 -12 -5
-27 -9 -23 -41 -159 -65 -268 -2 -11 -6 -31 -9 -45 -11 -48 -53 -280 -60 -332
-9 -66 -15 -101 -20 -128 -9 -44 -17 -116 -30 -260 -2 -30 -7 -77 -10 -105
-23 -234 -23 -712 0 -925 2 -19 6 -71 9 -115 3 -44 8 -98 12 -120 3 -22 7 -56
8 -75 2 -19 6 -51 10 -70 14 -81 17 -97 22 -140 4 -43 7 -57 18 -106 2 -12 7
-39 10 -59 4 -21 13 -70 22 -109 8 -39 18 -84 20 -101 3 -16 14 -59 24 -95 9
-36 18 -69 19 -75 0 -5 8 -35 17 -65 9 -30 18 -64 20 -75 6 -29 53 -183 70
-228 7 -20 11 -37 8 -37 -4 0 -1 -6 5 -14 7 -8 13 -22 15 -32 3 -11 21 -64 41
-119 21 -55 44 -117 52 -138 7 -22 23 -58 35 -80 11 -23 20 -43 19 -45 -2 -2
5 -17 66 -154 31 -70 135 -276 178 -353 16 -27 37 -66 48 -85 11 -19 28 -47
38 -62 11 -14 19 -29 19 -33 0 -3 18 -33 40 -65 22 -32 40 -63 40 -69 0 -5 3
-11 8 -13 4 -1 34 -43 67 -93 33 -49 66 -94 73 -98 6 -4 12 -14 12 -22 0 -7 3
-15 8 -17 4 -1 29 -32 57 -68 27 -36 52 -67 55 -70 3 -3 23 -27 45 -55 116
-145 359 -396 499 -513 66 -55 194 -159 220 -177 16 -11 33 -24 40 -30 6 -5
31 -23 56 -40 25 -16 47 -32 50 -35 3 -3 37 -25 75 -49 39 -24 81 -51 95 -61
106 -71 423 -229 580 -289 47 -18 94 -37 105 -42 24 -10 206 -71 220 -73 6 -1
16 -5 23 -9 6 -5 12 -6 12 -3 0 3 18 -1 39 -9 32 -11 158 -41 256 -61 11 -2
34 -7 50 -10 17 -4 41 -8 55 -10 14 -1 34 -5 46 -7 18 -5 82 -13 169 -22 17
-2 50 -6 75 -9 192 -25 674 -20 830 9 8 2 44 6 80 10 104 12 102 11 300 50
120 23 368 92 485 135 28 10 84 31 125 46 41 15 100 39 130 52 30 14 60 27 65
28 20 4 190 89 197 99 4 5 8 7 8 2 0 -4 18 4 40 18 22 14 42 25 44 25 3 0 46
25 97 55 50 30 95 55 100 55 4 0 12 6 16 13 4 6 20 18 35 26 15 8 37 23 48 33
11 10 20 16 20 13 0 -4 13 4 29 17 16 12 41 32 57 43 57 41 181 140 254 204
119 104 365 359 356 368 -1 2 -30 -8 -64 -21 -34 -14 -62 -22 -62 -19 0 3 -6
0 -14 -6 -8 -6 -18 -11 -22 -10 -5 1 -16 -1 -24 -4 -13 -5 -109 -31 -162 -43
-131 -30 -244 -48 -363 -60 -33 -3 -76 -7 -95 -10 -41 -5 -393 -5 -430 0 -14
2 -59 7 -100 11 -41 4 -84 9 -94 11 -11 2 -40 6 -65 9 -51 6 -84 12 -109 19
-9 3 -33 8 -52 11 -19 3 -71 15 -115 26 -44 11 -89 22 -99 24 -45 10 -351 118
-398 140 -29 14 -56 25 -61 25 -4 0 -77 34 -160 76 -208 105 -206 104 -212
115 -4 5 -11 7 -16 4 -5 -4 -9 -2 -9 2 0 5 -17 17 -37 28 -35 19 -262 165
-287 186 -6 5 -54 41 -106 81 -52 40 -101 78 -108 85 -7 6 -34 29 -59 50 -154
124 -475 454 -552 566 -8 12 -20 27 -27 32 -6 6 -24 28 -40 50 -16 22 -31 42
-35 45 -3 3 -20 28 -39 55 -19 28 -36 52 -40 55 -3 3 -25 34 -48 70 -23 36
-45 70 -50 75 -29 37 -124 201 -194 335 -22 41 -45 81 -50 88 -6 6 -7 12 -3
12 3 0 -4 17 -17 38 -12 20 -21 37 -19 37 1 0 -10 29 -27 65 -54 120 -152 386
-166 453 -2 7 -6 19 -9 27 -9 23 -48 172 -52 195 -1 11 -10 56 -20 100 -9 44
-18 93 -20 108 -11 81 -17 115 -25 147 -4 19 -14 69 -20 110 -6 41 -13 86 -16
100 -2 14 -6 50 -10 80 -3 30 -7 66 -10 80 -22 139 -22 652 1 791 2 13 7 47
10 74 19 142 21 160 40 260 20 109 23 124 29 143 3 9 7 28 10 42 2 14 10 45
17 70 7 25 13 50 15 55 23 111 138 437 211 605 49 111 178 370 185 370 4 0 8
7 8 15 0 9 23 52 50 96 28 44 50 83 50 85 0 3 8 17 19 32 10 15 36 54 57 87
21 33 42 61 46 63 5 2 8 9 8 15 0 7 11 24 25 39 14 15 25 31 25 35 0 4 9 19
20 33 11 14 47 61 81 105 209 277 444 526 738 781 128 110 339 268 489 366 31
20 62 40 68 45 17 13 48 33 64 40 8 3 26 14 40 23 14 10 46 29 71 42 77 43 94
53 99 58 3 3 80 42 171 87 184 91 506 225 599 248 18 4 87 29 95 34 6 3 15 6
21 7 5 1 64 20 130 42 160 54 305 98 336 102 4 1 38 10 75 21 38 11 77 22 88
24 11 2 29 6 40 8 34 8 228 49 255 54 14 2 36 6 50 8 83 15 201 35 238 40 23
3 59 7 80 10 251 32 507 48 782 48 253 0 649 -20 743 -38 10 -3 46 -7 80 -10
34 -3 73 -8 87 -10 14 -2 45 -7 70 -10 25 -3 86 -13 135 -22 50 -8 99 -17 110
-18 17 -2 113 -21 205 -40 14 -3 36 -8 50 -10 14 -2 70 -15 124 -30 55 -14
109 -27 120 -29 51 -10 305 -83 441 -127 39 -13 72 -23 75 -23 3 -1 19 -6 35
-12 17 -7 77 -28 135 -49 100 -35 302 -112 365 -140 17 -7 64 -27 105 -45 75
-32 132 -58 234 -106 30 -14 57 -24 59 -22 2 1 10 -2 18 -8 8 -6 88 -50 179
-96 91 -47 189 -99 218 -116 28 -17 52 -29 52 -25 0 3 8 -1 18 -9 9 -8 96 -61
192 -118 96 -58 180 -108 185 -112 6 -4 73 -50 150 -101 122 -81 248 -169 280
-194 6 -5 26 -19 45 -33 19 -13 37 -27 40 -30 3 -3 29 -23 58 -44 29 -21 63
-47 75 -57 12 -10 54 -44 93 -76 136 -111 149 -121 174 -143 14 -12 47 -41 74
-64 44 -37 127 -112 210 -190 99 -92 314 -307 396 -396 224 -243 287 -290 209
-158 -42 71 -91 142 -101 146 -4 2 -8 8 -8 14 0 8 -62 103 -93 143 -4 5 -49
67 -100 136 -128 175 -129 177 -157 214 -14 18 -34 45 -45 61 -11 15 -24 32
-30 38 -5 6 -30 38 -54 71 -71 95 -324 410 -333 413 -4 2 -8 8 -8 12 0 5 -10
20 -22 32 -13 13 -45 50 -72 82 -28 32 -70 80 -95 106 -26 26 -73 78 -106 115
-93 106 -133 151 -220 244 -100 108 -471 477 -556 553 -35 32 -82 74 -104 94
-38 35 -268 232 -309 264 -10 8 -23 20 -30 25 -25 23 -165 133 -270 211 -61
46 -121 93 -133 104 -12 11 -26 20 -30 20 -5 0 -21 11 -36 25 -15 14 -27 22
-27 18 0 -4 -4 -3 -8 3 -4 6 -50 39 -102 75 -52 35 -97 66 -100 69 -13 13 -66
44 -72 42 -5 -1 -8 2 -8 6 0 5 -16 17 -35 28 -19 10 -35 22 -35 26 0 5 -5 8
-10 8 -6 0 -37 17 -68 38 -32 21 -64 41 -72 45 -8 4 -27 15 -42 25 -68 44
-189 112 -198 112 -5 0 -10 5 -10 10 0 6 -4 10 -8 10 -5 0 -58 28 -118 61
-132 74 -488 249 -639 314 -60 26 -119 51 -130 56 -86 38 -185 76 -185 73 0
-3 -10 1 -22 8 -13 6 -27 13 -33 14 -5 2 -55 19 -110 39 -91 33 -276 94 -300
100 -5 1 -17 5 -25 8 -8 3 -40 13 -70 21 -30 8 -89 24 -130 35 -137 38 -498
117 -585 127 -45 5 -80 12 -80 14 0 1 -14 3 -31 5 -17 2 -65 8 -105 14 -41 6
-99 13 -129 16 -30 2 -75 7 -99 10 -110 14 -791 31 -803 20z"/>
<path d="M6365 17592 c-27 -15 -52 -30 -55 -33 -3 -3 -21 -14 -40 -25 -19 -10
-37 -22 -40 -25 -3 -3 -54 -39 -115 -80 -60 -41 -112 -77 -115 -80 -3 -3 -39
-30 -80 -59 -41 -30 -88 -64 -105 -77 -16 -13 -34 -27 -40 -31 -5 -4 -46 -34
-90 -67 -44 -32 -81 -62 -83 -67 -2 -4 -10 -8 -17 -8 -7 0 -15 -4 -17 -8 -1
-4 -32 -30 -68 -57 -78 -59 -219 -170 -240 -188 -8 -7 -35 -29 -59 -48 -25
-19 -52 -41 -61 -49 -9 -8 -38 -33 -65 -55 -83 -68 -138 -116 -182 -159 -23
-23 -68 -63 -99 -91 -32 -27 -65 -57 -74 -65 -9 -8 -38 -35 -66 -59 -225 -201
-515 -490 -724 -721 -41 -46 -86 -96 -100 -111 -50 -54 -111 -126 -219 -259
-61 -74 -118 -142 -126 -151 -8 -9 -15 -21 -15 -27 0 -7 -3 -12 -8 -12 -4 0
-41 -45 -82 -100 -41 -56 -83 -111 -93 -123 -10 -12 -26 -34 -35 -49 -9 -16
-20 -28 -24 -28 -4 0 -8 -6 -8 -14 0 -8 -3 -16 -7 -18 -9 -3 -13 -9 -108 -150
-38 -56 -72 -105 -75 -108 -3 -3 -28 -41 -55 -85 -27 -44 -51 -82 -54 -85 -10
-9 -31 -44 -37 -62 -4 -10 -10 -18 -15 -18 -5 0 -9 -5 -9 -11 0 -6 -8 -23 -19
-37 -68 -99 -361 -639 -361 -668 0 -8 -3 -14 -8 -14 -4 0 -13 -15 -21 -32 -8
-18 -28 -62 -46 -98 -17 -36 -32 -69 -34 -75 -3 -9 -26 -63 -56 -130 -23 -50
-135 -334 -152 -383 -8 -26 -20 -58 -26 -72 -5 -14 -11 -29 -12 -35 -2 -5 -19
-59 -40 -120 -20 -60 -38 -117 -40 -125 -3 -8 -27 -96 -55 -195 -41 -148 -81
-317 -114 -485 -2 -14 -10 -50 -16 -80 -5 -30 -12 -75 -15 -100 -3 -25 -7 -54
-9 -65 -4 -21 -15 -94 -21 -135 -2 -14 -7 -59 -10 -100 -4 -41 -9 -82 -10 -91
-11 -56 -20 -305 -20 -544 1 -246 4 -334 20 -525 9 -109 61 -455 81 -540 3
-14 7 -34 9 -45 1 -11 13 -60 25 -110 12 -49 23 -97 25 -105 29 -134 61 -256
67 -258 5 -2 6 -8 2 -13 -3 -5 2 -31 10 -57 9 -26 18 -58 20 -72 3 -14 5 -25
6 -25 1 0 3 -10 6 -22 7 -38 144 -446 164 -490 11 -24 20 -47 20 -52 0 -7 22
-63 50 -126 5 -11 35 -78 66 -150 74 -170 220 -455 323 -630 102 -174 220
-359 232 -363 5 -2 9 -9 9 -15 0 -11 204 -293 275 -381 206 -256 314 -375 540
-601 181 -181 273 -266 420 -390 146 -123 167 -139 188 -155 12 -8 29 -20 37
-27 8 -7 42 -32 75 -57 33 -25 65 -49 70 -54 17 -13 267 -185 330 -226 106
-69 129 -83 210 -131 179 -106 268 -155 455 -248 160 -81 438 -207 455 -207 4
0 26 -9 49 -19 40 -19 71 -30 81 -31 3 0 18 -6 33 -14 24 -12 220 -84 247 -90
6 -1 62 -19 125 -41 63 -21 122 -39 130 -40 8 -1 22 -5 30 -8 44 -16 310 -94
346 -101 10 -2 48 -12 84 -21 36 -9 72 -18 80 -20 8 -2 58 -13 110 -25 52 -12
145 -30 205 -41 61 -10 124 -22 140 -25 17 -4 41 -8 55 -9 14 -2 25 -4 25 -5
0 -1 14 -3 30 -5 61 -6 143 -17 230 -30 22 -3 69 -8 105 -10 36 -3 101 -8 145
-12 107 -10 760 -9 855 1 41 4 100 9 130 11 57 4 163 15 191 20 42 8 127 18
156 19 18 1 33 5 33 9 0 5 4 6 8 3 5 -3 39 1 76 9 37 8 84 17 104 20 20 3 80
14 132 26 52 11 106 22 120 25 14 2 32 7 40 10 8 3 29 8 45 11 17 3 107 27
200 55 94 27 193 56 220 63 28 8 59 19 70 24 11 5 85 33 165 61 80 29 170 64
200 77 30 14 64 28 75 33 11 5 47 21 80 36 33 16 63 27 68 26 4 -1 7 2 7 6 0
5 6 9 13 9 6 0 31 12 55 26 23 15 42 25 42 22 0 -3 19 5 43 18 23 14 76 43
117 64 181 97 338 195 555 350 33 23 65 46 70 50 33 26 212 170 221 178 91 81
223 206 283 269 42 43 85 88 97 100 18 18 189 220 213 251 171 224 328 480
445 725 51 109 123 277 131 310 2 8 20 60 40 115 19 55 39 116 44 135 5 19 20
78 34 130 14 52 28 109 31 125 3 17 10 53 16 80 12 53 16 77 25 140 3 22 7 49
9 61 2 11 7 52 11 90 4 38 9 78 11 89 15 79 22 535 10 626 -3 24 -8 80 -11
124 -3 44 -7 91 -10 105 -3 14 -7 41 -10 60 -16 121 -33 226 -50 295 -5 25
-18 75 -32 130 -8 33 -16 67 -17 75 -1 8 -6 25 -10 37 -4 12 -9 30 -11 40 -2
10 -10 37 -19 61 -8 23 -16 44 -16 47 -5 38 -131 369 -142 373 -4 2 -8 10 -8
18 0 8 -4 22 -9 32 -5 9 -39 78 -76 152 -60 121 -190 347 -206 360 -3 3 -14
20 -23 38 -9 17 -21 32 -26 32 -6 0 -10 6 -10 13 0 7 -9 23 -20 35 -11 12 -20
25 -20 29 0 5 -10 19 -23 33 -12 14 -33 41 -47 60 -13 19 -27 37 -30 40 -3 3
-24 28 -45 55 -83 104 -321 349 -404 414 l-40 32 20 -63 c11 -35 24 -72 29
-83 25 -61 93 -367 104 -470 3 -27 9 -77 12 -110 4 -33 8 -73 10 -90 5 -46 5
-396 0 -425 -2 -14 -7 -55 -11 -92 -3 -37 -8 -77 -10 -90 -2 -13 -6 -43 -9
-68 -6 -47 -8 -57 -27 -150 -6 -30 -13 -62 -14 -70 -2 -8 -4 -15 -5 -15 -1 0
-3 -9 -4 -20 -15 -104 -165 -539 -226 -654 -5 -9 -34 -68 -66 -131 -31 -63
-65 -127 -76 -142 -11 -16 -16 -28 -12 -28 4 0 0 -8 -8 -17 -8 -10 -28 -40
-44 -68 -15 -27 -31 -52 -34 -55 -3 -3 -11 -16 -18 -30 -15 -30 -208 -301
-220 -309 -4 -3 -19 -22 -32 -41 -13 -19 -27 -37 -30 -40 -3 -3 -20 -23 -39
-45 -151 -178 -328 -357 -495 -500 -32 -27 -73 -62 -90 -77 -17 -15 -34 -28
-38 -28 -4 0 -13 -7 -22 -15 -23 -23 -186 -145 -186 -139 0 3 -12 -7 -27 -21
-15 -14 -32 -25 -36 -25 -5 0 -26 -13 -47 -30 -21 -17 -42 -30 -48 -30 -6 0
-12 -3 -14 -7 -3 -8 -34 -27 -105 -65 -24 -12 -43 -26 -43 -30 0 -4 -9 -8 -19
-8 -11 0 -21 -4 -23 -9 -6 -19 -466 -237 -538 -256 -8 -2 -69 -23 -135 -46
-158 -55 -452 -130 -570 -144 -65 -8 -85 -12 -195 -34 -58 -11 -130 -23 -160
-26 -30 -2 -64 -6 -75 -9 -11 -2 -58 -7 -105 -11 -47 -4 -98 -9 -115 -11 -37
-5 -437 -5 -485 0 -19 2 -71 7 -115 11 -44 3 -94 9 -111 11 -32 5 -85 12 -144
19 -19 2 -69 12 -110 21 -41 9 -82 16 -90 16 -8 0 -55 11 -104 24 -49 12 -93
21 -97 18 -4 -2 -10 0 -14 6 -4 6 -10 8 -15 5 -5 -3 -11 -1 -15 5 -3 5 -15 10
-25 10 -11 0 -77 19 -147 42 -70 23 -130 43 -133 43 -3 1 -16 6 -30 12 -14 6
-45 18 -70 26 -61 21 -166 64 -215 87 -239 114 -402 197 -415 210 -3 3 -25 16
-50 29 -25 13 -81 48 -125 76 -44 28 -95 60 -112 70 -18 11 -33 23 -33 27 0 4
-5 8 -10 8 -6 0 -37 19 -68 42 -134 99 -167 123 -172 129 -3 3 -22 17 -42 31
-21 13 -35 28 -31 31 3 4 0 7 -8 7 -8 0 -30 14 -49 31 -19 17 -61 54 -94 82
-32 29 -78 70 -101 92 -23 22 -56 52 -71 66 -43 38 -262 268 -314 329 -25 29
-50 58 -55 64 -6 6 -38 45 -70 86 -66 83 -63 79 -105 135 -16 22 -33 45 -38
50 -34 45 -82 117 -82 124 0 5 -4 11 -8 13 -8 3 -132 185 -132 193 0 3 -25 45
-55 94 -49 81 -210 400 -266 526 -56 127 -132 335 -122 335 3 0 1 6 -4 13 -6
6 -24 55 -42 107 -18 52 -36 104 -40 115 -4 11 -18 52 -30 90 -13 39 -25 77
-28 85 -4 8 -7 22 -8 30 0 8 -8 38 -17 65 -24 70 -71 251 -83 315 -3 14 -12
54 -20 90 -9 36 -17 76 -20 90 -2 14 -7 36 -10 50 -3 14 -8 41 -11 60 -2 19
-9 55 -15 80 -5 25 -11 61 -14 80 -6 55 -24 190 -30 230 -3 14 -7 59 -11 100
-3 41 -7 93 -9 115 -24 281 -23 787 2 1045 3 36 7 79 8 95 2 38 15 150 22 190
3 17 6 48 8 70 4 44 9 82 30 200 8 44 17 99 20 122 7 51 72 354 87 408 6 22
12 47 13 55 3 21 44 180 54 210 5 14 14 43 20 65 6 22 20 69 32 105 11 36 22
72 24 80 6 27 102 303 129 375 52 133 78 200 91 230 33 75 38 90 37 98 -1 4 3
7 10 7 6 0 9 3 6 6 -3 3 11 42 32 87 20 45 48 105 60 132 86 190 295 583 410
771 24 38 52 85 64 104 33 55 104 164 115 177 6 7 11 15 11 19 0 4 18 31 40
60 22 29 40 56 40 58 0 3 26 41 58 85 31 43 64 89 72 101 8 12 20 28 25 34 6
6 35 44 65 85 30 41 69 93 88 115 37 46 42 52 92 116 19 24 45 56 57 70 12 14
59 68 104 120 45 52 107 124 138 159 66 75 408 417 582 582 67 64 120 121 118
127 -3 7 -23 1 -54 -16z"/>
<path d="M11597 16344 c-1 -1 -51 -5 -112 -9 -139 -8 -228 -16 -335 -30 -19
-3 -52 -7 -74 -10 -74 -9 -143 -19 -236 -35 -30 -5 -71 -12 -90 -15 -19 -3
-64 -13 -100 -21 -36 -9 -74 -17 -85 -18 -11 -2 -27 -6 -35 -8 -8 -3 -58 -15
-110 -28 -52 -12 -102 -24 -110 -28 -8 -3 -19 -6 -25 -6 -5 -1 -35 -10 -65
-19 -30 -9 -57 -17 -60 -17 -3 0 -39 -11 -80 -25 -41 -15 -82 -28 -90 -30 -31
-8 -209 -74 -320 -120 -160 -65 -374 -166 -473 -222 -33 -18 -63 -33 -68 -33
-6 0 -15 -5 -22 -10 -7 -6 -64 -41 -127 -78 -63 -36 -116 -70 -118 -74 -2 -4
-8 -8 -14 -8 -24 0 -500 -335 -575 -405 -12 -11 -50 -45 -84 -75 -116 -102
-262 -252 -349 -360 -19 -24 -42 -51 -50 -59 -15 -17 -113 -146 -140 -187 -91
-135 -130 -196 -130 -204 0 -6 -4 -10 -9 -10 -5 0 -11 -8 -15 -17 -3 -10 -18
-38 -32 -63 -56 -96 -144 -270 -188 -375 -26 -60 -51 -119 -56 -130 -5 -11
-16 -42 -26 -70 -10 -27 -22 -56 -27 -62 -5 -7 -7 -13 -3 -13 3 0 0 -16 -9
-36 -16 -39 -75 -227 -81 -259 -2 -11 -12 -54 -23 -95 -11 -41 -22 -88 -25
-105 -3 -16 -10 -52 -16 -80 -11 -52 -15 -76 -25 -135 -3 -19 -7 -46 -10 -60
-2 -14 -7 -54 -11 -90 -3 -36 -8 -74 -10 -85 -19 -96 -26 -600 -11 -765 4 -47
10 -105 12 -130 2 -25 6 -55 9 -67 2 -12 7 -48 11 -80 6 -60 48 -277 67 -348
5 -22 12 -49 15 -60 7 -31 11 -50 13 -55 1 -3 3 -9 4 -15 1 -5 5 -17 8 -25 3
-8 14 -42 23 -75 26 -91 114 -332 139 -380 5 -11 11 -25 12 -31 4 -25 141
-288 210 -404 104 -175 251 -376 377 -517 84 -94 277 -281 282 -273 3 4 -2 27
-11 51 -9 24 -17 53 -19 64 -2 11 -6 29 -9 40 -12 45 -35 142 -40 170 -2 17
-7 39 -9 50 -7 29 -26 161 -33 225 -9 76 -13 540 -5 540 3 0 7 28 8 63 1 62
25 226 47 327 3 14 9 41 12 60 4 19 10 42 14 50 5 8 10 29 13 45 6 35 70 246
88 290 7 17 13 35 13 40 1 6 11 32 24 59 12 27 22 50 22 52 0 16 165 352 205
419 14 22 34 59 47 83 12 23 25 42 30 42 4 0 8 5 8 10 0 13 120 194 132 198 4
2 8 9 8 16 0 7 11 23 25 36 14 13 25 27 25 32 0 7 21 34 55 72 6 6 26 31 45
56 19 25 39 50 45 57 5 6 37 42 70 79 76 87 291 301 375 375 160 140 446 354
555 415 11 6 62 37 113 68 98 59 308 169 329 172 7 1 25 11 40 22 15 11 32 20
36 20 4 0 31 10 60 23 29 13 54 24 57 24 3 1 18 7 33 13 16 7 30 12 31 12 2 0
21 8 42 17 22 9 44 18 49 19 6 1 72 23 149 48 76 25 141 45 145 44 3 -1 13 2
21 5 15 6 132 37 160 42 60 10 88 16 110 20 52 12 144 26 260 40 66 8 98 13
165 24 231 39 685 47 955 16 19 -2 58 -7 85 -10 28 -3 61 -7 75 -10 13 -3 40
-7 60 -10 20 -3 47 -7 60 -10 14 -3 41 -8 60 -11 276 -50 671 -177 959 -310
114 -53 126 -59 131 -64 5 -5 122 -63 130 -65 3 0 16 -8 30 -16 14 -9 63 -38
110 -65 47 -26 87 -52 88 -56 2 -4 8 -8 14 -8 6 0 26 -11 45 -26 18 -14 33
-22 33 -18 0 4 10 -1 23 -12 12 -11 51 -40 87 -64 118 -80 275 -198 321 -242
16 -15 29 -24 29 -20 0 4 4 2 8 -3 4 -6 41 -39 82 -75 166 -144 423 -403 501
-505 13 -16 29 -34 35 -40 17 -15 173 -211 204 -256 8 -12 34 -48 57 -80 50
-69 156 -229 166 -249 4 -8 27 -46 52 -85 24 -38 44 -74 45 -78 0 -5 8 -21 19
-35 15 -22 173 -325 178 -342 3 -9 35 -85 53 -125 53 -117 143 -371 194 -545
13 -47 41 -139 60 -205 20 -66 38 -127 40 -135 1 -8 8 -35 15 -60 8 -25 15
-52 16 -60 2 -8 4 -15 5 -15 1 0 3 -11 5 -25 2 -14 10 -53 19 -87 16 -62 70
-341 80 -418 3 -22 8 -51 10 -65 2 -14 7 -47 10 -75 4 -27 8 -66 11 -85 41
-334 50 -860 20 -1220 -3 -25 -6 -74 -9 -110 -5 -66 -11 -120 -23 -200 -3 -25
-7 -57 -7 -72 -1 -16 -3 -28 -6 -28 -3 0 -5 -12 -6 -27 0 -16 -3 -46 -7 -68
-7 -48 -35 -211 -42 -245 -3 -14 -7 -36 -10 -50 -3 -14 -7 -34 -9 -45 -3 -11
-14 -63 -25 -115 -11 -52 -29 -129 -40 -170 -12 -41 -21 -76 -21 -77 0 -2 0
-4 -1 -5 0 -2 -2 -10 -4 -18 -11 -53 -84 -298 -131 -438 -31 -92 -57 -171 -58
-177 -1 -5 -10 -27 -19 -49 -9 -21 -17 -42 -17 -47 0 -5 -4 -17 -9 -27 -6 -9
-22 -48 -37 -87 -141 -372 -392 -880 -602 -1220 -17 -27 -39 -65 -48 -82 -9
-18 -20 -33 -25 -33 -5 0 -9 -5 -9 -11 0 -6 -44 -77 -97 -157 -54 -81 -100
-151 -102 -157 -2 -5 -7 -12 -10 -15 -4 -3 -36 -45 -71 -95 -61 -85 -218 -294
-230 -305 -3 -3 -32 -39 -64 -80 -32 -41 -64 -79 -70 -85 -7 -5 -18 -19 -26
-31 -8 -12 -38 -48 -67 -80 -28 -32 -61 -70 -73 -84 -93 -109 -395 -419 -551
-566 -58 -54 -199 -179 -293 -259 -77 -65 -176 -160 -176 -168 0 -17 105 32
150 69 8 7 17 12 20 12 5 -2 111 64 194 119 26 18 52 33 56 33 5 0 10 3 12 8
2 4 31 25 65 47 35 22 63 43 63 48 0 4 4 7 10 7 5 0 37 19 70 43 34 23 68 47
77 52 10 6 22 14 27 18 6 5 65 46 131 93 66 46 128 91 137 99 10 8 37 27 60
42 24 15 45 30 48 33 3 3 39 30 80 60 41 30 77 57 80 60 3 3 41 32 85 65 44
33 87 68 96 77 9 10 19 18 22 18 3 0 18 11 33 25 15 14 40 36 56 48 16 12 43
36 61 52 18 17 47 41 65 55 35 27 45 35 113 92 97 81 203 173 318 276 159 143
503 482 628 619 34 37 70 77 80 88 55 59 296 340 343 400 30 39 57 72 60 75
15 13 228 295 295 390 132 188 395 591 395 606 0 3 15 28 33 57 18 29 45 77
61 107 16 30 32 57 35 60 3 3 19 32 36 65 16 33 49 96 72 139 24 44 43 85 43
93 0 7 3 13 8 13 4 0 13 15 21 33 8 17 28 64 46 102 18 39 47 101 65 140 17
38 41 92 52 120 11 27 26 64 33 80 32 71 63 155 57 155 -4 0 -2 4 3 8 8 6 52
116 59 147 1 6 4 15 8 20 5 9 77 226 83 250 1 6 4 17 7 25 12 34 42 136 45
153 2 10 14 58 28 105 13 48 26 101 29 117 3 17 12 59 21 95 20 78 22 87 29
134 3 19 10 55 15 78 13 57 25 126 36 208 3 25 10 72 15 105 32 219 45 435 44
755 0 247 -9 479 -19 520 -2 8 -7 48 -10 88 -4 40 -8 82 -10 94 -5 22 -15 85
-20 123 -9 67 -18 119 -31 185 -9 41 -18 86 -20 100 -9 57 -11 66 -17 85 -6
20 -14 55 -23 110 -3 17 -28 116 -55 220 -60 231 -52 203 -84 305 -15 47 -28
90 -29 95 -2 6 -8 22 -14 36 -6 15 -16 45 -22 68 -12 46 -113 319 -135 368 -8
17 -15 34 -15 37 0 11 -92 221 -102 234 -6 6 -8 12 -4 12 3 0 -3 17 -14 37
-11 21 -20 41 -20 45 0 5 -25 58 -55 118 -30 61 -51 110 -48 110 3 0 -1 8 -9
18 -8 9 -37 62 -65 117 -73 141 -88 168 -178 316 -44 72 -85 138 -90 147 -51
85 -304 433 -327 450 -10 7 -18 19 -18 27 0 7 -3 15 -7 17 -5 2 -28 28 -53 58
-25 30 -49 60 -55 66 -5 6 -35 40 -65 75 -136 158 -409 435 -554 564 -44 39
-84 75 -90 80 -22 20 -235 196 -301 248 -112 89 -342 251 -495 349 -58 38
-114 75 -125 83 -10 8 -25 15 -32 15 -7 0 -13 4 -13 8 0 4 -22 19 -50 33 -27
13 -50 27 -50 32 0 4 -4 7 -9 7 -5 0 -49 23 -98 51 -275 160 -620 320 -1028
479 -11 4 -31 12 -45 18 -24 11 -354 121 -375 126 -5 1 -37 10 -70 20 -33 10
-67 20 -75 21 -8 2 -15 4 -15 6 0 1 -9 3 -20 4 -11 2 -54 13 -95 25 -41 13
-84 24 -95 25 -11 2 -76 17 -145 33 -69 17 -141 33 -161 36 -20 3 -42 8 -50
10 -12 4 -31 8 -114 21 -11 2 -65 11 -120 20 -55 10 -111 18 -125 20 -36 4
-131 16 -160 20 -14 2 -56 6 -95 10 -38 3 -83 8 -100 10 -86 13 -837 30 -848
19z"/>
<path d="M12297 13564 c-4 -4 -60 -8 -124 -10 -122 -2 -262 -11 -299 -18 -24
-5 -115 -17 -159 -22 -43 -4 -139 -22 -235 -44 -25 -5 -56 -12 -70 -14 -70
-13 -228 -58 -350 -100 -58 -20 -114 -38 -125 -41 -11 -2 -29 -9 -40 -15 -22
-11 -74 -32 -90 -36 -29 -7 -206 -90 -316 -146 -154 -81 -288 -162 -484 -298
-22 -16 -151 -117 -171 -135 -7 -5 -36 -30 -65 -55 -72 -61 -282 -270 -277
-276 3 -2 24 3 48 11 24 8 55 17 69 20 14 3 51 12 81 21 30 8 65 17 78 20 23
4 30 5 132 23 36 6 76 13 90 16 14 2 49 6 79 9 29 3 56 7 59 10 2 3 13 1 23
-4 11 -7 20 -7 24 0 6 10 473 12 489 2 6 -3 33 -7 60 -8 42 -2 154 -19 261
-39 100 -19 247 -56 355 -91 30 -10 60 -18 65 -20 15 -3 175 -63 215 -80 227
-99 460 -223 644 -344 77 -50 111 -73 120 -81 6 -5 45 -35 86 -66 41 -31 80
-61 87 -67 7 -6 18 -16 25 -21 137 -106 386 -344 508 -485 30 -35 60 -68 65
-74 6 -6 22 -27 37 -48 15 -20 34 -42 41 -50 24 -24 133 -172 198 -268 140
-205 268 -433 355 -632 24 -57 51 -114 58 -128 8 -14 14 -27 14 -30 1 -3 5
-16 10 -30 34 -89 94 -264 98 -285 1 -5 10 -37 20 -70 10 -33 19 -64 20 -70 1
-5 13 -57 27 -115 14 -58 25 -112 25 -120 1 -8 7 -46 15 -85 13 -64 23 -130
32 -211 1 -17 8 -62 14 -100 21 -139 28 -206 37 -344 6 -108 10 -411 5 -416
-3 -2 -5 -32 -6 -67 -2 -59 -14 -216 -20 -247 -1 -8 -6 -35 -10 -60 -3 -25 -9
-58 -11 -75 -3 -16 -7 -43 -9 -60 -3 -24 -25 -129 -60 -285 -35 -157 -200
-629 -255 -728 -5 -9 -30 -60 -55 -112 -51 -109 -117 -232 -171 -322 -35 -60
-170 -272 -186 -293 -4 -5 -41 -55 -81 -110 -194 -263 -462 -559 -686 -755
-41 -36 -79 -70 -85 -75 -6 -6 -47 -40 -91 -75 -44 -36 -82 -67 -85 -70 -3 -3
-21 -17 -40 -30 -19 -13 -37 -27 -40 -30 -14 -15 -120 -90 -129 -90 -5 0 -11
-4 -13 -8 -8 -20 -334 -222 -492 -306 -38 -20 -76 -42 -84 -48 -8 -7 -17 -12
-18 -11 -2 1 -52 -21 -111 -49 -99 -46 -150 -69 -163 -73 -3 -1 -23 -9 -45
-19 -22 -10 -44 -19 -50 -20 -5 -1 -28 -10 -50 -20 -59 -26 -414 -143 -458
-151 -20 -4 -40 -11 -43 -16 -3 -5 -13 -9 -22 -9 -10 0 -53 -12 -97 -26 -44
-14 -91 -28 -105 -30 -14 -2 -54 -13 -90 -23 -36 -11 -92 -25 -125 -32 -33 -7
-64 -14 -70 -15 -38 -10 -64 -16 -185 -38 -14 -3 -48 -9 -77 -15 -29 -6 -74
-13 -100 -17 -26 -3 -57 -8 -68 -11 -11 -2 -33 -6 -50 -7 -16 -2 -55 -7 -85
-11 -89 -11 -152 -18 -295 -30 -288 -25 -748 -21 -1095 9 -65 6 -90 9 -185 22
-27 4 -61 8 -75 9 -34 4 -120 16 -150 21 -14 2 -54 9 -89 14 -36 6 -67 12 -70
14 -3 2 -26 7 -51 10 -65 9 -100 15 -145 28 -22 6 -53 12 -70 15 -44 7 -323
78 -445 113 -58 17 -112 32 -120 35 -8 2 -15 4 -15 5 0 1 -7 3 -15 5 -8 2 -37
11 -65 20 -27 10 -54 19 -60 20 -5 1 -17 5 -25 8 -41 16 -228 80 -248 84 -12
3 -25 9 -28 14 -3 5 -11 9 -18 9 -8 0 -29 6 -47 14 -19 8 -37 15 -41 16 -8 1
-107 43 -143 60 -21 10 -77 33 -85 34 -3 1 -31 14 -64 29 -32 15 -65 27 -72
27 -8 0 -14 3 -14 8 0 4 -30 21 -67 37 -107 46 -457 226 -573 295 -8 5 -55 32
-105 61 -49 28 -119 71 -155 94 -36 23 -69 44 -75 46 -22 9 -250 162 -253 170
-2 5 -8 9 -13 9 -6 0 -15 5 -22 10 -7 6 -64 47 -127 92 -63 45 -136 99 -161
120 -26 21 -51 38 -57 38 -6 0 -12 3 -14 8 -1 4 -50 45 -108 92 -124 100 -244
201 -326 275 -232 209 -532 509 -681 681 -10 12 -40 48 -68 80 -65 76 -142
163 -172 193 -13 13 -23 28 -23 34 0 6 -3 7 -7 4 -3 -4 -12 -2 -20 4 -26 22
-13 -13 38 -105 29 -50 54 -93 58 -96 3 -3 15 -21 25 -40 33 -59 318 -484 338
-503 10 -10 18 -22 18 -28 0 -5 11 -22 25 -37 14 -15 25 -32 25 -39 0 -7 3
-13 8 -13 4 0 23 -25 42 -55 19 -30 38 -55 43 -55 4 0 7 -6 7 -14 0 -8 4 -16
8 -18 4 -1 19 -19 32 -38 24 -34 177 -240 262 -352 41 -53 218 -266 246 -294
6 -7 12 -15 12 -18 0 -3 10 -16 23 -29 12 -13 29 -32 37 -43 30 -38 185 -220
215 -251 16 -17 37 -41 47 -53 29 -39 250 -270 394 -414 192 -192 383 -370
548 -509 27 -23 54 -46 60 -52 19 -17 81 -69 121 -101 22 -18 64 -52 94 -75
29 -24 61 -48 70 -54 9 -5 18 -13 21 -16 3 -3 46 -36 95 -73 50 -37 101 -76
115 -87 14 -11 37 -28 53 -37 15 -9 27 -20 27 -24 0 -4 6 -8 13 -8 7 0 22 -9
34 -19 20 -19 285 -197 380 -256 26 -16 64 -40 83 -53 19 -12 43 -25 53 -28 9
-4 17 -10 17 -15 0 -5 4 -9 9 -9 5 0 47 -22 94 -50 47 -27 90 -50 96 -50 6 0
11 -4 11 -8 0 -4 15 -15 33 -23 70 -32 222 -114 225 -121 2 -5 8 -8 12 -8 5 0
71 -31 147 -68 127 -63 437 -198 543 -237 25 -9 54 -20 65 -25 37 -15 90 -35
100 -37 6 -2 69 -23 140 -47 117 -40 294 -96 320 -102 6 -1 93 -22 195 -48
184 -45 224 -54 269 -61 13 -2 55 -10 95 -18 39 -9 78 -15 86 -15 8 0 26 -3
40 -6 14 -3 46 -8 71 -11 25 -3 56 -8 69 -10 81 -16 197 -27 415 -42 140 -10
591 -9 715 0 52 4 124 10 159 12 60 4 117 11 171 20 14 2 48 7 75 10 101 13
120 15 135 20 8 2 35 7 60 10 25 3 53 8 62 11 20 6 52 13 98 20 19 3 37 7 40
9 3 2 26 6 50 10 25 4 71 13 103 20 31 7 58 13 60 13 1 0 13 3 27 6 14 3 39 8
55 10 17 3 54 12 83 20 29 8 55 15 57 15 3 1 6 1 8 2 1 0 13 2 26 5 13 2 49
12 80 21 31 10 64 17 74 16 9 0 17 3 17 7 0 4 6 7 13 7 20 2 144 40 282 88 72
25 135 47 140 49 40 13 160 59 210 81 17 7 57 24 90 38 139 58 200 87 390 183
110 55 268 140 350 189 131 76 452 284 510 329 11 9 81 62 155 118 349 263
699 587 980 908 46 52 86 97 89 100 4 3 22 25 41 50 19 25 37 47 40 50 3 3 33
39 65 80 33 41 67 84 77 94 10 11 18 23 18 27 0 4 6 14 13 21 21 22 136 178
148 201 7 12 15 24 18 27 4 3 29 39 56 80 27 41 52 77 55 80 3 3 26 38 50 79
25 40 54 88 65 106 23 38 123 212 152 265 78 141 103 190 96 190 -4 0 -3 4 4
8 11 7 83 154 83 171 0 5 7 14 15 21 8 6 14 15 13 18 -1 6 17 49 57 137 21 45
116 276 125 305 5 14 29 84 55 155 94 264 127 364 180 546 30 102 55 195 55
206 0 11 3 23 7 27 4 3 8 17 10 29 2 12 8 40 14 62 12 43 14 55 23 106 3 19
10 49 15 67 5 17 8 32 6 32 -3 0 -1 10 4 23 5 13 12 39 15 58 3 19 17 97 30
174 13 77 22 143 19 148 -2 4 0 7 4 7 5 0 8 12 8 26 -1 15 2 47 6 73 4 25 10
80 14 121 4 41 9 89 11 105 31 243 19 933 -21 1215 -2 14 -7 50 -10 80 -11 88
-19 144 -29 200 -6 35 -12 67 -22 129 -3 18 -8 43 -10 55 -2 11 -7 37 -10 56
-3 19 -8 38 -10 41 -2 3 -6 19 -8 35 -10 49 -13 67 -30 130 -8 33 -17 69 -19
80 -2 10 -6 26 -9 34 -3 8 -16 53 -28 100 -13 47 -45 153 -72 235 -28 83 -51
155 -52 160 -2 6 -9 24 -15 40 -7 17 -22 55 -33 85 -11 30 -29 73 -39 96 -10
22 -27 64 -38 93 -12 28 -32 74 -46 101 -14 27 -25 52 -25 55 0 7 -80 167
-130 260 -61 114 -164 286 -229 384 -31 46 -60 91 -66 100 -5 9 -16 20 -22 24
-7 4 -13 13 -13 18 0 11 -60 92 -72 97 -5 2 -8 8 -8 13 0 8 -16 30 -45 63 -6
6 -40 47 -75 90 -87 106 -163 189 -295 318 -239 236 -359 330 -705 558 -14 9
-45 27 -70 41 -25 13 -47 26 -50 29 -11 11 -323 170 -334 170 -3 0 -29 11 -58
24 -147 66 -505 185 -603 201 -11 1 -56 11 -100 21 -44 10 -92 18 -107 18 -16
1 -28 3 -28 6 0 3 -8 6 -17 7 -33 3 -98 11 -168 22 -83 13 -240 24 -347 25
-43 1 -78 4 -78 7 0 4 -15 3 -34 -1 -19 -4 -38 -4 -43 1 -5 5 -12 6 -16 3z"/>
</g>
</svg>
